<?xml version="1.0" encoding="UTF-8" standalone="no"?>
<!-- Created with Inkscape (http://www.inkscape.org/) -->

<svg
   xmlns:dc="http://purl.org/dc/elements/1.1/"
   xmlns:cc="http://creativecommons.org/ns#"
   xmlns:rdf="http://www.w3.org/1999/02/22-rdf-syntax-ns#"
   xmlns:svg="http://www.w3.org/2000/svg"
   xmlns="http://www.w3.org/2000/svg"
   xmlns:sodipodi="http://sodipodi.sourceforge.net/DTD/sodipodi-0.dtd"
   xmlns:inkscape="http://www.inkscape.org/namespaces/inkscape"
   width="160.22667"
   height="126.10596"
   id="svg2"
   version="1.1"
   inkscape:version="0.48.2 r9819"
   sodipodi:docname="New document 1">
  <defs
     id="defs4" />
  <sodipodi:namedview
     id="base"
     pagecolor="#ffffff"
     bordercolor="#666666"
     borderopacity="1.0"
     inkscape:pageopacity="0.0"
     inkscape:pageshadow="2"
     inkscape:zoom="1.4182101"
     inkscape:cx="63.895745"
     inkscape:cy="63.052979"
     inkscape:document-units="px"
     inkscape:current-layer="layer1"
     showgrid="false"
     fit-margin-top="0"
     fit-margin-left="0"
     fit-margin-right="0"
     fit-margin-bottom="0"
     inkscape:window-width="475"
     inkscape:window-height="458"
     inkscape:window-x="88"
     inkscape:window-y="88"
     inkscape:window-maximized="0" />
  <metadata
     id="metadata7">
    <rdf:RDF>
      <cc:Work
         rdf:about="">
        <dc:format>image/svg+xml</dc:format>
        <dc:type
           rdf:resource="http://purl.org/dc/dcmitype/StillImage" />
        <dc:title></dc:title>
      </cc:Work>
    </rdf:RDF>
  </metadata>
  <g
     inkscape:label="Layer 1"
     inkscape:groupmode="layer"
     id="layer1"
     transform="translate(-311.10425,-442.24)">
    <g
       id="g3070"
       transform="matrix(3.1899315,0,0,3.1899315,-805.00673,-1192.9059)">
      <g
         id="g3271"
         transform="matrix(1.25,0,0,-1.25,357.67661,536.31218)">
        <path
           inkscape:connector-curvature="0"
           d="m 0,0 -1.768,0 0,1.333 5.289,0 0,-1.333 -1.766,0 0,-6.405 -1.755,0"
           style="fill:#231f20;fill-opacity:1;fill-rule:nonzero;stroke:none"
           id="path3273" />
      </g>
      <g
         id="g3275"
         transform="matrix(1.25,0,0,-1.25,356.48536,551.24093)">
        <path
           inkscape:connector-curvature="0"
           d="m 0,0 c 0.147,-0.143 0.309,-0.229 0.463,-0.229 0.222,0 0.401,0.177 0.401,0.401 0,0.635 -0.887,1.56 -0.887,2.404 0,0.554 0.344,0.943 0.838,0.943 0.147,0 0.27,-0.031 0.444,-0.11 l 0,-0.5 c -0.16,0.092 -0.247,0.129 -0.37,0.129 -0.259,0 -0.4,-0.129 -0.4,-0.394 0,-0.654 0.886,-1.541 0.886,-2.404 0,-0.56 -0.344,-0.95 -0.85,-0.95 C 0.34,-0.71 0.18,-0.661 0,-0.549 L 0,0"
           style="fill:#231f20;fill-opacity:1;fill-rule:nonzero;stroke:none"
           id="path3277" />
      </g>
      <g
         id="g3279"
         transform="matrix(1.25,0,0,-1.25,359.32411,547.52843)">
        <path
           inkscape:connector-curvature="0"
           d="m 0,0 -0.636,0 0,0.494 1.802,0 0,-0.494 -0.636,0 0,-3.625 -0.53,0"
           style="fill:#231f20;fill-opacity:1;fill-rule:nonzero;stroke:none"
           id="path3281" />
      </g>
      <g
         id="g3283"
         transform="matrix(1.25,0,0,-1.25,361.12411,549.48343)">
        <path
           inkscape:connector-curvature="0"
           d="m 0,0 c 0,-1.369 0.48,-2.115 1.103,-2.115 0.567,0 1.104,0.672 1.104,2.115 0,1.129 -0.371,2.113 -1.104,2.113 C 0.294,2.113 0,1.004 0,0 m 0.554,0 c 0,0.738 0.111,1.621 0.543,1.621 0.351,0 0.555,-0.586 0.555,-1.621 0,-1.018 -0.204,-1.622 -0.543,-1.622 -0.357,0 -0.555,0.585 -0.555,1.622"
           style="fill:#231f20;fill-opacity:1;fill-rule:nonzero;stroke:none"
           id="path3285" />
      </g>
      <g
         id="g3287"
         transform="matrix(1.25,0,0,-1.25,366.67036,551.83593)">
        <path
           inkscape:connector-curvature="0"
           d="m 0,0 c -0.216,-0.166 -0.4,-0.233 -0.629,-0.233 -0.709,0 -1.111,0.752 -1.111,2.089 0,1.19 0.327,2.139 1.123,2.139 0.16,0 0.376,-0.08 0.567,-0.217 l 0,-0.535 c -0.16,0.161 -0.357,0.26 -0.531,0.26 -0.468,0 -0.603,-0.586 -0.603,-1.621 0,-1.104 0.161,-1.622 0.622,-1.622 0.172,0 0.303,0.067 0.562,0.296 L 0,0"
           style="fill:#231f20;fill-opacity:1;fill-rule:nonzero;stroke:none"
           id="path3289" />
      </g>
      <g
         id="g3291"
         transform="matrix(1.25,0,0,-1.25,395.05911,521.47593)">
        <path
           inkscape:connector-curvature="0"
           d="m 0,0 c -0.147,0.094 -0.286,0.051 -0.456,0.055 -0.184,-0.217 -0.281,0.08 -0.492,0.005 -0.145,-0.173 -0.43,0.04 -0.593,-0.156 -0.314,0.117 -0.583,-0.306 -0.913,-0.092 -0.229,-0.06 -0.5,-0.067 -0.742,-0.171 -0.375,0.093 -0.733,-0.087 -1.102,-0.125 -0.255,-0.13 -0.453,-0.137 -0.721,-0.241 -0.254,-0.021 -0.56,-0.015 -0.815,-0.187 -0.183,0.146 -0.331,-0.055 -0.521,0.012 l -0.146,-0.006 c -0.197,0.177 -0.553,-0.254 -0.586,0.185 0.078,0.23 -0.227,0.461 0.108,0.561 0.091,0.204 0.121,0.51 0.4,0.545 0.082,0.09 0.189,0.078 0.307,0.046 0.21,0.16 0.334,0.221 0.584,0.237 0.091,0.154 0.322,0.141 0.493,0.197 0.149,0.051 0.354,0.137 0.528,0.203 0.371,0.133 0.524,0.182 0.842,0.412 0.156,0.088 -0.133,-0.169 0,0 0.084,0.148 -0.018,-0.103 0,0 -0.205,0.142 -0.085,0.025 -0.27,0.153 L -4.532,1.611 c -0.154,0.158 -0.449,0.173 -0.639,0.096 -0.142,0.049 -0.285,0.038 -0.398,0.098 -0.105,-0.086 -0.146,0.039 -0.243,0.049 -0.851,-0.12 -1.712,0.273 -2.596,0.132 -0.325,0.086 -0.771,0.143 -1.124,0.043 -0.141,0.05 -0.262,0.028 -0.404,0.069 -0.038,-0.11 -0.075,0.045 -0.143,-0.041 -0.192,0.048 -0.006,-0.025 -0.203,0.021 -0.119,0.08 -0.25,-0.04 -0.369,-0.036 -0.324,0.071 -0.681,0.11 -0.93,0.034 -0.193,0.134 -0.414,-0.152 -0.531,0.064 -0.182,-0.07 -0.436,0.063 -0.64,0.005 -0.126,0.076 -0.243,-0.036 -0.386,-0.012 -0.287,0.144 -0.525,-0.205 -0.795,0.017 -0.203,-0.099 -0.38,0.159 -0.582,-0.084 -0.248,0.163 -0.511,-0.095 -0.72,0.043 -0.182,-0.12 -0.399,-0.004 -0.601,-0.004 -0.192,-0.076 -0.421,-0.068 -0.607,-0.041 -0.219,-0.087 -0.465,-0.107 -0.672,-0.085 -0.311,-0.097 -0.605,-0.006 -0.906,-0.046 -0.215,-0.066 -0.501,-0.164 -0.75,-0.103 -0.103,-0.059 -0.184,0.037 -0.291,-0.017 -0.313,0.005 -0.628,-0.188 -0.982,-0.071 -0.246,-0.17 -0.539,-0.055 -0.799,-0.168 -0.213,0.145 -0.417,-0.267 -0.641,-0.031 -0.31,-0.086 -0.635,-0.075 -0.936,-0.191 -0.154,0.107 -0.238,-0.082 -0.408,-0.028 -0.316,-0.065 -0.641,-0.205 -0.957,-0.146 -0.271,-0.171 -0.536,-0.011 -0.796,-0.225 -0.176,0.142 -0.34,-0.117 -0.523,0.022 -0.225,-0.065 -0.421,-0.211 -0.656,-0.198 -0.066,-0.027 -0.135,-0.139 -0.188,-0.033 -0.165,-0.025 -0.327,-0.15 -0.495,-0.084 -0.133,-0.18 -0.216,-0.002 -0.376,-0.065 -0.257,-0.228 -0.598,-0.043 -0.85,-0.32 l -0.017,0.024 c -0.442,-0.026 -0.823,-0.093 -1.238,-0.276 -0.197,0.073 -0.41,-0.186 -0.657,-0.107 -0.309,-0.087 -0.522,-0.137 -0.834,-0.283 -0.201,0 -0.473,-0.029 -0.645,-0.174 -0.411,-0.199 -0.908,-0.141 -1.274,-0.45 -0.39,0.11 -0.747,-0.351 -1.064,-0.276 -0.3,-0.09 -0.586,-0.262 -0.906,-0.272 -0.277,-0.1 -0.561,-0.137 -0.817,-0.32 -0.121,0.018 -0.203,-0.11 -0.333,-0.039 -0.115,-0.093 -0.224,-0.032 -0.342,0.006 -0.12,0.105 -0.277,0.134 -0.327,0.21 0.091,0.051 -0.015,0.143 0,0.221 -0.063,0.043 0.084,0.121 0.059,0.246 0.131,0.442 0.632,0.383 0.892,0.658 l 0.149,0.006 c 0.199,0.103 0.467,0.418 0.678,0.34 0.215,0.271 0.575,0.17 0.798,0.352 0.129,-0.04 0.22,0.148 0.316,0.119 l 0.135,0.124 c 0.264,-0.007 0.493,0.19 0.753,0.229 l 0.541,0.246 c 0.202,0.009 0.415,0.094 0.627,0.143 l 0.141,0.098 0.152,0.021 c 0.104,-0.012 0.295,0.061 0.384,0.141 0.162,-0.074 0.223,0.177 0.369,0.083 0.265,0.018 0.462,0.251 0.719,0.206 0.18,0.045 0.353,0.213 0.537,0.15 0.26,0.04 0.54,0.287 0.862,0.209 0.064,0.128 0.187,-0.017 0.262,0.06 0.317,0.204 0.623,0.098 0.932,0.29 0.169,-0.03 0.3,0.126 0.484,0.055 0.266,0.079 0.548,0.134 0.831,0.164 0.418,0.105 0.84,0.187 1.267,0.238 0.32,0.174 0.643,0.046 0.971,0.232 0.154,-0.005 0.248,0.008 0.401,-0.008 0.234,0.065 0.448,0.208 0.701,0.168 0.201,0.204 0.429,-0.046 0.633,0.149 0.468,-0.022 0.943,0.172 1.437,0.176 0.225,0.076 0.415,0.044 0.644,0.129 0.216,-0.182 0.374,0.167 0.608,0.047 0.11,0.099 0.323,-0.092 0.438,0.11 0.519,-0.222 1.008,0.224 1.524,0.084 0.193,0.027 0.385,0.098 0.566,0.069 0.251,10e-4 0.49,0.01 0.756,0.087 0.209,-0.085 0.373,0.085 0.584,-0.003 0.179,0.121 0.414,-0.016 0.59,0.121 l 0.192,-0.002 c 0.072,-0.11 0.234,-0.007 0.294,-0.009 0.332,-0.08 0.61,0.033 0.95,-0.001 0.133,-0.07 0.259,0.102 0.429,-0.013 0.379,-0.098 0.704,0.068 1.067,0.052 0.121,-0.128 0.285,-0.035 0.428,-0.048 0.137,0.134 0.349,-0.083 0.524,-0.018 0.28,-0.005 0.513,0.043 0.802,0 0.258,0.202 0.441,-0.129 0.681,0.057 0.17,-0.115 0.332,-0.08 0.52,-0.047 l 0.176,-0.033 c 0.127,0.008 0.312,-0.067 0.434,0.023 0.128,-0.201 0.352,0.043 0.472,-0.112 0.307,-0.003 0.613,-0.075 0.904,-0.032 0.668,-0.13 1.42,-0.247 2.061,-0.077 -0.026,-0.15 -0.257,-0.044 -0.131,-0.044 l 0.144,0.098 C -4.534,3.982 -4.681,4.15 -4.852,4.186 -4.997,4.498 -5.13,4.425 -5.267,4.729 -5.378,4.846 -5.565,4.973 -5.738,5.018 -6.054,5.401 -5.729,5.385 -6.176,5.639 L -6.265,5.682 -6.754,6.17 c 0.105,0.297 -0.391,0.324 -0.142,0.592 -0.008,0.152 0.119,-0.058 0.142,0.119 l 0.124,0.141 c 0.134,0.065 0.334,0.019 0.478,0.005 l 0.075,0.077 C -5.795,6.896 -5.478,6.84 -5.183,6.615 -5.03,6.636 -5.063,6.512 -4.935,6.481 -4.341,6.172 -4.03,5.865 -3.47,5.594 -3.197,5.34 -2.81,5.029 -2.419,4.913 -2.434,4.811 -2.272,4.785 -2.22,4.804 -2.042,4.477 -1.669,4.459 -1.497,4.129 -1.337,4.117 -1.273,3.884 -1.069,3.904 -0.976,3.664 -0.651,3.597 -0.478,3.386 -0.379,3.402 -0.337,3.313 -0.288,3.244 -0.11,3.018 0.286,3.076 0.356,2.735 0.534,2.594 0.615,2.262 0.876,2.135 0.843,1.836 1.196,1.786 1.165,1.48 1.204,1.171 1.036,0.998 1.048,0.703 0.92,0.433 0.655,0.389 0.399,0.269 L 0,0"
           style="fill:#ed1c24;fill-opacity:1;fill-rule:nonzero;stroke:none"
           id="path3293" />
      </g>
      <g
         id="g3295"
         transform="matrix(1.25,0,0,-1.25,363.84911,528.94218)">
        <path
           inkscape:connector-curvature="0"
           d="M 0,0 C 0.114,0.07 0.22,0.035 0.352,0.037 0.491,-0.132 0.569,0.096 0.731,0.035 0.839,-0.1 1.063,0.061 1.187,-0.091 1.43,-0.004 1.634,-0.335 1.888,-0.172 2.064,-0.223 2.274,-0.23 2.459,-0.313 c 0.289,0.068 0.562,-0.076 0.846,-0.109 0.196,-0.103 0.348,-0.111 0.552,-0.193 0.198,-0.02 0.433,-0.02 0.627,-0.155 0.142,0.112 0.256,-0.045 0.402,0.004 l 0.113,-0.007 c 0.153,0.136 0.422,-0.202 0.454,0.136 -0.059,0.178 0.18,0.354 -0.078,0.434 -0.067,0.158 0.065,0.201 -0.15,0.232 L 4.837,0.261 C 4.677,0.387 4.548,0.42 4.356,0.436 4.288,0.557 4.084,0.526 3.953,0.572 3.838,0.613 3.667,0.727 3.534,0.779 3.248,0.887 3.558,0.715 3.317,0.896 3.196,0.967 3.167,0.96 3.067,1.093 3.001,1.208 3.511,1.176 3.511,1.176 3.633,1.295 3.86,1.301 4.006,1.238 4.115,1.274 4.226,1.263 4.315,1.306 L 4.501,1.34 C 5.154,1.233 5.868,1.521 6.574,1.396 6.834,1.457 7.193,1.492 7.473,1.41 7.587,1.445 7.682,1.428 7.797,1.455 L 7.922,1.412 C 8.076,1.447 7.916,1.402 8.075,1.434 8.172,1.492 8.273,1.398 8.369,1.4 8.628,1.449 8.834,1.479 9.137,1.416 9.254,1.505 9.403,1.391 9.558,1.455 9.701,1.4 9.928,1.496 10.092,1.45 c 0.099,0.06 0.194,-0.026 0.306,-0.009 0.231,0.112 0.42,-0.156 0.639,0.015 0.161,-0.076 0.303,0.123 0.465,-0.061 0.197,0.123 0.41,-0.075 0.576,0.033 0.145,-0.092 0.32,-0.003 0.481,-0.002 0.154,-0.059 0.337,-0.053 0.486,-0.031 0.176,-0.066 0.372,-0.082 0.538,-0.065 0.249,-0.073 0.506,-0.01 0.745,-0.035 0.176,-0.049 0.404,-0.12 0.604,-0.071 l 0.232,-0.009 c 0.248,0.006 0.506,-0.139 0.786,-0.043 0.199,-0.129 0.433,-0.037 0.642,-0.121 0.166,0.114 0.337,-0.2 0.513,-0.016 0.25,-0.062 0.509,-0.051 0.75,-0.137 0.124,0.086 0.192,-0.058 0.329,-0.015 0.252,-0.047 0.513,-0.152 0.766,-0.101 0.219,-0.128 0.428,-0.003 0.64,-0.164 0.139,0.111 0.273,-0.086 0.418,0.024 0.181,-0.048 0.34,-0.159 0.527,-0.146 l 0.151,-0.023 c 0.134,-0.018 0.263,-0.111 0.398,-0.059 0.107,-0.137 0.172,0.002 0.301,-0.045 0.21,-0.174 0.479,-0.026 0.685,-0.236 l 0.012,0.018 c 0.354,-0.013 0.66,-0.061 0.994,-0.196 0.158,0.057 0.332,-0.141 0.528,-0.076 0.248,-0.065 0.453,-0.095 0.658,-0.264 0.157,0.057 0.392,0.039 0.529,-0.07 0.334,-0.149 0.73,-0.1 1.027,-0.332 0.311,0.09 0.602,-0.261 0.854,-0.199 0.242,-0.066 0.473,-0.194 0.726,-0.199 0.223,-0.075 0.452,-0.102 0.657,-0.243 0.097,0.016 0.164,-0.084 0.267,-0.027 0.094,-0.07 0.178,-0.022 0.273,0.009 0.095,0.081 0.269,0.069 0.309,0.127 l 0.102,0.247 c 0.049,0.034 -0.206,0.271 -0.19,0.369 -0.114,0.338 -0.511,0.289 -0.722,0.499 l -0.119,0.002 C 27.814,-0.127 27.596,0.113 27.428,0.051 27.253,0.258 26.966,0.174 26.785,0.313 26.684,0.281 26.605,0.424 26.53,0.4 L 26.421,0.495 C 26.21,0.485 26.024,0.635 25.816,0.662 L 25.38,0.846 C 25.225,0.771 25.045,0.914 24.877,0.949 L 24.734,1.064 24.559,1.111 C 24.414,1.094 24.451,1.029 24.332,1.176 24.213,1.076 24.152,1.274 24.035,1.201 23.823,1.213 23.662,1.389 23.456,1.352 23.313,1.384 23.174,1.51 23.025,1.461 22.818,1.488 22.592,1.675 22.334,1.611 22.281,1.709 22.185,1.596 22.124,1.654 21.868,1.808 21.625,1.723 21.375,1.865 21.239,1.842 21.133,1.959 20.987,1.903 20.773,1.96 20.547,2 20.319,2.02 19.986,2.095 19.645,2.153 19.303,2.189 19.045,2.318 18.788,2.216 18.523,2.355 18.4,2.351 18.324,2.358 18.203,2.345 18.015,2.392 17.844,2.501 17.641,2.467 17.477,2.619 17.156,2.426 16.989,2.574 16.614,2.551 16.232,2.696 15.838,2.693 15.656,2.75 15.506,2.723 15.32,2.785 15.151,2.642 15.019,2.91 14.835,2.815 14.746,2.89 14.572,2.818 14.482,2.893 13.943,2.782 13.674,3.065 13.262,2.956 13.109,2.977 12.953,3.031 12.809,3.009 12.607,3.01 12.418,3.016 12.203,3.076 12.035,3.009 11.904,3.139 11.737,3.072 11.594,3.164 11.406,3.059 11.264,3.163 L 11.07,3.195 C 11.051,3.068 10.924,3.156 10.875,3.156 10.611,3.094 10.389,3.179 10.115,3.154 10.01,3.098 9.932,3.193 9.775,3.148 9.473,3.076 9.215,3.209 8.924,3.199 8.827,3.103 8.695,3.178 8.581,3.17 8.474,3.275 8.3,3.111 8.161,3.165 7.936,3.168 7.76,3.189 7.528,3.162 7.306,3.318 7.258,3.1 7.118,3.229 6.981,3.145 6.709,3.18 6.559,3.209 L 6.42,3.187 C 6.318,3.195 6.166,3.141 6.069,3.213 5.965,3.062 5.791,3.252 5.692,3.135 5.447,3.137 5.18,3.088 4.959,3.127 4.441,3.037 4.578,2.934 4.085,3.077 4.102,2.96 3.92,3.043 3.822,3.045 L 3.676,2.919 C 3.905,3.165 3.514,3.037 3.286,2.992 3.167,3.105 3.697,3.141 3.805,3.373 3.894,3.462 4.038,3.557 4.171,3.589 4.419,3.882 4.705,4.135 5.096,4.178 L 5.095,4.204 5.262,4.273 C 5.269,4.439 5.599,4.555 5.412,4.764 5.421,4.881 5.221,4.941 5.204,5.077 L 5.109,5.188 C 5.008,5.239 4.93,5.353 4.819,5.344 L 4.762,5.403 C 4.543,5.248 3.922,5.184 3.693,5.016 3.574,5.033 3.6,4.938 3.499,4.914 2.942,4.74 2.722,4.491 2.287,4.289 2.076,4.096 1.862,3.838 1.561,3.752 L 1.406,3.671 C 1.266,3.421 0.979,3.412 0.842,3.16 0.719,3.152 0.667,2.974 0.509,2.99 0.435,2.807 0.184,2.758 0.046,2.599 L -0.1,2.491 C -0.239,2.318 -0.545,2.368 -0.602,2.107 -0.74,2 -0.806,1.744 -1.01,1.65 -0.987,1.42 -1.259,1.385 -1.239,1.148 -1.275,0.91 -1.039,0.769 -1.052,0.541 -0.956,0.332 -0.499,0.307 -0.305,0.211 L 0,0"
           style="fill:#ed1c24;fill-opacity:1;fill-rule:nonzero;stroke:none"
           id="path3297" />
      </g>
      <g
         id="g3299"
         transform="matrix(1.25,0,0,-1.25,362.50661,539.39093)">
        <path
           inkscape:connector-curvature="0"
           d="m 0,0 c 0,-2.902 1.553,-4.048 3.048,-4.048 1.315,0 3.048,0.942 3.048,3.968 0,2.904 -1.609,3.982 -3.048,3.982 C 1.543,3.902 0,2.631 0,0 m 1.791,-0.068 c 0,1.519 0.305,2.449 1.257,2.449 1.042,0 1.259,-1.111 1.259,-2.449 0,-1.858 -0.443,-2.459 -1.259,-2.459 -0.964,0 -1.257,0.916 -1.257,2.459"
           style="fill:#231f20;fill-opacity:1;fill-rule:nonzero;stroke:none"
           id="path3301" />
      </g>
      <g
         id="g3303"
         transform="matrix(1.25,0,0,-1.25,371.79911,534.64593)">
        <path
           inkscape:connector-curvature="0"
           d="m 0,0 1.757,0 0,-3.749 0.022,0 L 3.716,0 5.472,0 3.545,-3.681 5.96,-7.738 l -1.961,0 -2.22,3.739 -0.022,0 0,-3.739 -1.757,0"
           style="fill:#231f20;fill-opacity:1;fill-rule:nonzero;stroke:none"
           id="path3305" />
      </g>
      <g
         id="g3307"
         transform="matrix(1.25,0,0,-1.25,382.09161,539.90093)">
        <path
           inkscape:connector-curvature="0"
           d="m 0,0 -2.144,4.204 1.88,0 1.169,-2.38 0.965,2.38 1.867,0 L 1.801,0 l 0,-3.534 -1.801,0"
           style="fill:#231f20;fill-opacity:1;fill-rule:nonzero;stroke:none"
           id="path3309" />
      </g>
      <g
         id="g3311"
         transform="matrix(1.25,0,0,-1.25,387.49411,539.39093)">
        <path
           inkscape:connector-curvature="0"
           d="m 0,0 c 0,-2.902 1.554,-4.048 3.05,-4.048 1.312,0 3.048,0.942 3.048,3.968 0,2.904 -1.61,3.982 -3.048,3.982 C 1.543,3.902 0,2.631 0,0 m 1.791,-0.068 c 0,1.519 0.307,2.449 1.259,2.449 1.042,0 1.257,-1.111 1.257,-2.449 0,-1.858 -0.442,-2.459 -1.257,-2.459 -0.964,0 -1.259,0.916 -1.259,2.459"
           style="fill:#231f20;fill-opacity:1;fill-rule:nonzero;stroke:none"
           id="path3313" />
      </g>
      <g
         id="g3315"
         transform="matrix(1.25,0,0,-1.25,368.01161,549.44593)">
        <path
           inkscape:connector-curvature="0"
           d="m 0,0 0.58,2.028 0.543,0 -0.648,-1.96 0.807,-2.159 -0.548,0 L 0,0 m -0.549,2.028 0.52997,0 0,-4.119 -0.52997,0 0,4.119 z"
           style="fill:#231f20;fill-opacity:1;fill-rule:nonzero;stroke:none"
           id="path3317" />
      </g>
      <g
         id="g3319"
         transform="matrix(1.25,0,0,-1.25,371.31911,546.91093)">
        <path
           inkscape:connector-curvature="0"
           d="m 0,0 1.468,0 0,-0.494 -0.938,0 0,-1.233 0.857,0 0,-0.493 -0.857,0 0,-1.406 0.987,0 0,-0.493 -1.517,0"
           style="fill:#231f20;fill-opacity:1;fill-rule:nonzero;stroke:none"
           id="path3321" />
      </g>
      <g
         id="g3323"
         transform="matrix(1.25,0,0,-1.25,374.68911,549.32343)">
        <path
           inkscape:connector-curvature="0"
           d="m 0,0 -0.624,1.931 0.568,0 0.364,-1.363 0.011,0 0.371,1.363 0.566,0 L 0.634,0 l 0.727,-2.188 -0.566,0 -0.476,1.529 -0.011,0 -0.463,-1.529 -0.566,0"
           style="fill:#231f20;fill-opacity:1;fill-rule:nonzero;stroke:none"
           id="path3325" />
      </g>
      <g
         id="g3327"
         transform="matrix(1.25,0,0,-1.25,378.91911,551.83593)">
        <path
           inkscape:connector-curvature="0"
           d="m 0,0 c -0.215,-0.166 -0.4,-0.233 -0.629,-0.233 -0.707,0 -1.109,0.752 -1.109,2.089 0,1.19 0.328,2.139 1.123,2.139 0.159,0 0.375,-0.08 0.566,-0.217 l 0,-0.535 c -0.16,0.161 -0.357,0.26 -0.53,0.26 -0.468,0 -0.605,-0.586 -0.605,-1.621 0,-1.104 0.163,-1.622 0.623,-1.622 0.173,0 0.301,0.067 0.561,0.296 L 0,0"
           style="fill:#231f20;fill-opacity:1;fill-rule:nonzero;stroke:none"
           id="path3329" />
      </g>
      <g
         id="g3331"
         transform="matrix(1.25,0,0,-1.25,379.56911,546.91093)">
        <path
           inkscape:connector-curvature="0"
           d="m 0,0 0.531,0 0,-1.813 0.782,0 0,1.813 0.531,0 0,-4.119 -0.531,0 0,1.813 -0.782,0 0,-1.813 -0.531,0"
           style="fill:#231f20;fill-opacity:1;fill-rule:nonzero;stroke:none"
           id="path3333" />
      </g>
      <g
         id="g3335"
         transform="matrix(1.25,0,0,-1.25,382.42911,552.05968)">
        <path
           inkscape:connector-curvature="0"
           d="m 0,0 0.512,0 0.161,0.913 0.764,0 L 1.585,0 2.097,0 1.326,4.144 0.776,4.144 0,0 m 0.752,1.406 0.29,1.726 0.012,0 0.289,-1.726"
           style="fill:#231f20;fill-opacity:1;fill-rule:nonzero;stroke:none"
           id="path3337" />
      </g>
      <g
         id="g3339"
         transform="matrix(1.25,0,0,-1.25,385.60536,546.91093)">
        <path
           inkscape:connector-curvature="0"
           d="m 0,0 0.433,0 0.912,-2.541 0.013,0 0,2.541 0.485,0 0,-4.119 -0.432,0 -0.912,2.566 -0.012,0 0,-2.566 -0.487,0"
           style="fill:#231f20;fill-opacity:1;fill-rule:nonzero;stroke:none"
           id="path3341" />
      </g>
      <g
         id="g3343"
         transform="matrix(1.25,0,0,-1.25,391.28036,551.81968)">
        <path
           inkscape:connector-curvature="0"
           d="m 0,0 c -0.266,-0.172 -0.482,-0.246 -0.729,-0.246 -0.822,0 -1.357,0.752 -1.357,2.107 0,1.295 0.502,2.121 1.295,2.121 0.246,0 0.469,-0.08 0.791,-0.294 L 0,3.119 c -0.334,0.297 -0.525,0.402 -0.766,0.402 -0.548,0 -0.79,-0.574 -0.79,-1.66 0,-1.035 0.248,-1.614 0.841,-1.614 l 0.183,0.019 0,1.262 -0.364,0 0,0.493 L 0,2.021 0,0"
           style="fill:#231f20;fill-opacity:1;fill-rule:nonzero;stroke:none"
           id="path3345" />
      </g>
      <g
         id="g3347"
         transform="matrix(1.25,0,0,-1.25,392.12036,546.91093)">
        <path
           inkscape:connector-curvature="0"
           d="m 0,0 1.467,0 0,-0.494 -0.936,0 0,-1.233 0.856,0 0,-0.493 -0.856,0 0,-1.406 0.985,0 0,-0.493 -1.516,0"
           style="fill:#231f20;fill-opacity:1;fill-rule:nonzero;stroke:none"
           id="path3349" />
      </g>
    </g>
  </g>
</svg>
